<svg width="148" height="32" viewBox="0 0 148 32" fill="none" xmlns="http://www.w3.org/2000/svg" role="img" aria-label="AI Mesh">
  <defs>
    <linearGradient id="am-logo-bg" x1="0" y1="0" x2="32" y2="32" gradientUnits="userSpaceOnUse">
      <stop stop-color="#0d1a16"/>
      <stop offset="1" stop-color="#0a1410"/>
    </linearGradient>
    <radialGradient id="am-logo-glow" cx="16" cy="16" r="10" gradientUnits="userSpaceOnUse">
      <stop stop-color="#10d984" stop-opacity="0.4"/>
      <stop offset="1" stop-color="#10d984" stop-opacity="0"/>
    </radialGradient>
  </defs>
  <rect width="32" height="32" rx="8" fill="url(#am-logo-bg)"/>
  <rect width="32" height="32" rx="8" fill="url(#am-logo-glow)"/>
  <rect x="0.5" y="0.5" width="31" height="31" rx="7.5" stroke="#10d984" stroke-opacity="0.3"/>
  <g stroke="#10d984" stroke-opacity="0.5" stroke-width="0.9">
    <line x1="9" y1="10" x2="16" y2="16"/>
    <line x1="23" y1="10" x2="16" y2="16"/>
    <line x1="9" y1="22" x2="16" y2="16"/>
    <line x1="23" y1="22" x2="16" y2="16"/>
    <line x1="9" y1="10" x2="9" y2="22"/>
    <line x1="23" y1="10" x2="23" y2="22"/>
    <line x1="9" y1="10" x2="23" y2="10"/>
    <line x1="9" y1="22" x2="23" y2="22"/>
  </g>
  <g fill="#10d984">
    <circle cx="9" cy="10" r="1.6"/>
    <circle cx="23" cy="10" r="1.6"/>
    <circle cx="9" cy="22" r="1.6"/>
    <circle cx="23" cy="22" r="1.6"/>
  </g>
  <circle cx="16" cy="16" r="3.4" fill="#10d984" fill-opacity="0.22" stroke="#10d984" stroke-width="1"/>
  <circle cx="16" cy="16" r="1.8" fill="#10d984"/>
  <text x="42" y="21" font-family="ui-sans-serif, system-ui, -apple-system, 'Segoe UI', sans-serif" font-size="15" font-weight="600" letter-spacing="-0.01em" fill="#0d1a16">AI Mesh</text>
</svg>
